<svg width="60" height="60" viewBox="0 0 60 60" fill="none" xmlns="http://www.w3.org/2000/svg">
<circle cx="30" cy="30" r="30" fill="#FF9900"/>
<path d="M29.0418 30.0772C29.0418 28.972 28.6609 27.9796 27.899 27.2071C27.1371 26.4346 26.1584 26.0484 25.0684 26.0484C23.9783 26.0484 22.9996 26.4346 22.2377 27.2071C21.4759 27.9796 21.0422 28.972 21.0422 30.0772C21.0422 31.1825 21.4231 32.1749 22.185 32.9474C22.9469 33.7199 23.9256 34.1061 25.0156 34.1061C26.1057 34.1061 27.0844 33.7199 27.8463 32.9474C28.6609 32.1214 29.0418 31.1825 29.0418 30.0772ZM41.0266 38.1944C41.0266 37.6418 40.8097 37.1426 40.4288 36.7564C40.0479 36.3701 39.5556 36.1503 39.0105 36.1503C38.4655 36.1503 37.9732 36.3701 37.5923 36.7564C37.2114 37.1426 36.9945 37.6418 36.9945 38.1944C36.9945 38.747 37.2114 39.2462 37.5923 39.6324C37.9732 40.0187 38.4655 40.2385 39.0105 40.2385C39.5556 40.2385 40.0479 40.0187 40.4288 39.6324C40.8097 39.1868 41.0266 38.747 41.0266 38.1944ZM41.0266 21.9601C41.0266 21.4075 40.8097 20.9083 40.4288 20.5221C40.0479 20.1358 39.5556 19.916 39.0105 19.916C38.4655 19.916 37.9732 20.1358 37.5923 20.5221C37.2114 20.9083 36.9945 21.4075 36.9945 21.9601C36.9945 22.5127 37.2114 23.0119 37.5923 23.3981C37.9732 23.7844 38.4655 24.0042 39.0105 24.0042C39.5556 24.0042 40.0479 23.7844 40.4288 23.3981C40.8097 23.0119 41.0266 22.5127 41.0266 21.9601ZM35.0371 28.6392V31.5628C35.0371 31.6757 34.9844 31.7827 34.9258 31.8956C34.873 32.0085 34.7617 32.062 34.6562 32.062L32.2592 32.4482C32.1479 32.8345 31.9896 33.2207 31.7669 33.6604C32.0951 34.1596 32.5816 34.7657 33.1852 35.4847C33.2379 35.5976 33.2965 35.7046 33.2965 35.8175C33.2965 35.9304 33.2438 36.0374 33.1852 36.0908C32.9684 36.4236 32.5288 36.8633 31.8783 37.5289C31.2805 38.135 30.841 38.4677 30.6828 38.4677C30.5714 38.4677 30.4659 38.4143 30.3546 38.3548L28.5554 36.9168C28.1744 37.1367 27.7935 37.3031 27.3598 37.416C27.2485 38.5747 27.143 39.3472 26.9789 39.8463C26.9262 40.1197 26.7621 40.2326 26.4866 40.2326H23.6032C23.4919 40.2326 23.3864 40.1791 23.2751 40.1197C23.1637 40.0662 23.111 39.9533 23.111 39.8463L22.73 37.416C22.4018 37.3031 21.9682 37.1426 21.5872 36.9168L19.7353 38.2954C19.6826 38.3489 19.5712 38.4083 19.4071 38.4083C19.2958 38.4083 19.1903 38.3548 19.0789 38.2954C17.5552 36.9168 16.8461 36.0314 16.8461 35.7581C16.8461 35.6452 16.8988 35.5382 16.9574 35.4847C17.0688 35.3183 17.2856 35.045 17.6138 34.6587C17.942 34.2725 18.1588 33.9397 18.3229 33.7199C18.1061 33.2801 17.8892 32.8345 17.7779 32.4482L15.3809 32.062C15.2696 32.062 15.1641 32.0085 15.1113 31.8956C15.0586 31.7827 15 31.7292 15 31.5628V28.6392C15 28.5263 15.0527 28.4194 15.1113 28.3065C15.1641 28.1935 15.2754 28.1401 15.3809 28.1401L17.7779 27.7538C17.8892 27.3676 18.0475 26.9813 18.2702 26.5416C17.942 26.0424 17.4556 25.4363 16.8519 24.7173C16.7992 24.6044 16.7406 24.4975 16.7406 24.3846C16.7406 24.2716 16.7933 24.1647 16.8519 24.0518C17.0688 23.719 17.5083 23.2793 18.1061 22.6732C18.7038 22.0671 19.1434 21.7343 19.3602 21.7343C19.4716 21.7343 19.5771 21.7878 19.6884 21.8472L21.4876 23.2852C21.8158 23.1188 22.2495 22.9525 22.6831 22.7861C22.7945 21.6273 22.9 20.8548 23.0641 20.3557C23.1168 20.0823 23.2809 19.9694 23.5564 19.9694H26.4397C26.5511 19.9694 26.6566 20.0229 26.7679 20.0823C26.8793 20.1418 26.932 20.2487 26.932 20.3557L27.313 22.7861C27.6411 22.899 28.0748 23.0594 28.4558 23.2852L30.3077 21.9066C30.419 21.8531 30.4718 21.7937 30.6359 21.7937C30.7472 21.7937 30.8527 21.8472 30.9641 21.9066C32.4878 23.2852 33.1969 24.1706 33.1969 24.444C33.1969 24.5569 33.1442 24.6638 33.0856 24.7173C32.9742 24.8837 32.7574 25.157 32.4292 25.5433C32.101 25.9295 31.8842 26.2623 31.7201 26.4822C31.9369 26.9813 32.1537 27.4211 32.2651 27.7538L34.662 28.1401C34.7734 28.1401 34.8789 28.1935 34.9316 28.3065C34.9785 28.4194 35.0371 28.5323 35.0371 28.6392ZM45 37.0357V39.2462C45 39.4126 44.2381 39.5789 42.6558 39.7453C42.5444 40.0187 42.3862 40.298 42.1635 40.5713C42.7085 41.7835 42.9781 42.5025 42.9781 42.7818C42.9781 42.8353 42.9781 42.8353 42.9254 42.8947C41.6712 43.6672 41.0207 44 40.9621 44C40.8508 44 40.6339 43.7801 40.253 43.281C39.872 42.7818 39.5966 42.455 39.4384 42.2292C39.2743 42.2292 39.1102 42.2292 39.0047 42.2292C38.8933 42.2292 38.7351 42.2292 38.5124 42.1757C38.3483 42.3956 38.0787 42.7818 37.6978 43.2275C37.3169 43.7267 37.0414 43.9465 36.9887 43.9465C36.9887 43.9465 36.3323 43.5603 35.0254 42.8413C34.9727 42.7878 34.9727 42.7878 34.9727 42.7284C34.9727 42.455 35.2422 41.736 35.7873 40.5178C35.6232 40.2445 35.4591 39.9652 35.295 39.6919C33.7712 39.5255 32.9508 39.3591 32.9508 39.1927V36.9822C32.9508 36.8158 33.7126 36.6494 35.295 36.483C35.4063 36.1503 35.5646 35.8769 35.7873 35.657C35.2422 34.4448 34.9727 33.7258 34.9727 33.4465C34.9727 33.393 34.9727 33.393 35.0254 33.3336C35.0781 33.3336 35.2422 33.2207 35.5704 33.0008C35.8986 32.8345 36.2268 32.6146 36.4964 32.4482C36.766 32.2818 36.9301 32.1749 36.9887 32.1749C37.1 32.1749 37.3169 32.3947 37.6978 32.8939C38.0787 33.393 38.3542 33.7199 38.5124 33.9457C38.7292 33.9457 38.8933 33.8922 39.0047 33.8922C39.116 33.8922 39.2743 33.8922 39.497 33.9457C40.042 33.1732 40.5343 32.6205 40.9152 32.1808L41.0266 32.1273C41.0793 32.1273 41.7357 32.5136 42.9898 33.2326C43.0426 33.2861 43.0426 33.2861 43.0426 33.3455C43.0426 33.6188 42.773 34.3379 42.228 35.556C42.3921 35.7759 42.5562 36.0552 42.7203 36.382C44.2381 36.7029 45 36.8693 45 37.0357ZM45 20.8548V23.0654C45 23.2317 44.2381 23.3981 42.6558 23.5645C42.5444 23.8379 42.3862 24.1171 42.1635 24.3905C42.7085 25.6027 42.9781 26.3217 42.9781 26.601C42.9781 26.6545 42.9781 26.6545 42.9254 26.7139C41.6712 27.4864 41.0207 27.8192 40.9621 27.8192C40.8508 27.8192 40.6339 27.5993 40.253 27.1002C39.872 26.601 39.5966 26.2742 39.4384 26.0484C39.2215 26.0484 39.0574 26.1019 38.9461 26.1019C38.8347 26.1019 38.6765 26.1019 38.4538 26.0484C38.2897 26.2683 38.0201 26.6545 37.6392 27.1002C37.2583 27.5993 36.9828 27.8192 36.9301 27.8192C36.9301 27.8192 36.2737 27.4329 34.9668 26.7139C34.914 26.6604 34.914 26.6604 34.914 26.601C34.914 26.3277 35.1836 25.6087 35.7287 24.3905C35.5646 24.1171 35.4005 23.8379 35.2364 23.5645C33.7126 23.3981 32.8922 23.2317 32.8922 23.0654V20.8548C32.8922 20.6885 33.654 20.5221 35.2364 20.3557C35.3477 20.0229 35.506 19.7496 35.7287 19.5297C35.1836 18.3175 34.914 17.5985 34.914 17.3192C34.914 17.2657 34.914 17.2657 34.9668 17.2063C35.0195 17.2063 35.1836 17.0934 35.5118 16.8735C35.84 16.7071 36.1682 16.4873 36.4378 16.3209C36.7074 16.1545 36.8715 16.0475 36.9301 16.0475C37.0414 16.0475 37.2583 16.2674 37.6392 16.7666C38.0201 17.2657 38.2956 17.5925 38.4538 17.8183C38.6706 17.8183 38.8347 17.7649 38.9461 17.7649C39.0574 17.7649 39.2157 17.7649 39.4384 17.8183C39.9834 17.0458 40.4757 16.4932 40.8566 16.0535L40.968 16C41.0207 16 41.6771 16.3862 42.9312 17.1053C42.984 17.1587 42.984 17.1587 42.984 17.2182C42.984 17.4915 42.7144 18.2105 42.1694 19.4287C42.3335 19.6486 42.4976 19.9278 42.6617 20.2547C44.2381 20.5221 45 20.6885 45 20.8548Z" fill="white"/>
</svg>
