<svg width="60" height="60" viewBox="0 0 60 60" fill="none" xmlns="http://www.w3.org/2000/svg">
<circle cx="30" cy="30" r="30" fill="#14708F"/>
<path d="M24.657 30C23.0766 30.0491 21.8078 30.6601 20.7906 31.8766H18.8492C18.0344 31.8766 17.3727 31.6748 16.8148 31.2656C16.257 30.8565 16 30.3055 16 29.5418C16 26.1376 16.6125 24.4138 17.832 24.4138C17.8813 24.4138 18.0891 24.5174 18.4445 24.7193C18.8 24.9211 19.2594 25.123 19.8719 25.3303C20.4297 25.5321 21.0422 25.6358 21.6055 25.6358C22.2672 25.6358 22.8797 25.5321 23.5414 25.2812C23.4922 25.6358 23.4922 25.9413 23.4922 26.2467C23.4812 27.6106 23.8422 28.8817 24.657 30ZM40.2812 39.2413C40.2812 40.4087 39.9258 41.3252 39.2148 41.9853C38.5039 42.6454 37.5852 43 36.3656 43H23.6344C22.4641 43 21.4961 42.6454 20.7852 41.9853C20.0742 41.3252 19.7188 40.4087 19.7188 39.2413C19.7188 38.7339 19.7188 38.2266 19.768 37.7193C19.8172 37.2119 19.8719 36.7046 19.9703 36.1427C20.0742 35.5862 20.2273 35.0243 20.375 34.5661C20.5281 34.0588 20.7305 33.6005 20.9875 33.1423C21.2445 32.684 21.5453 32.2803 21.9062 31.9748C22.2617 31.6693 22.6719 31.3638 23.1258 31.2111C23.5852 31.0583 24.143 30.9056 24.7555 30.9056C24.8594 30.9056 25.0617 31.0092 25.368 31.2111C25.6742 31.4129 26.0297 31.6693 26.4344 31.9203C26.8391 32.1712 27.3531 32.4276 28.0148 32.6295C28.6766 32.8313 29.3383 32.935 30 32.935C30.6617 32.935 31.3234 32.8313 31.9852 32.6295C32.6469 32.4276 33.1555 32.1712 33.5656 31.9203C33.9758 31.6693 34.3313 31.4129 34.632 31.2111C34.9383 31.0092 35.1406 30.9056 35.2445 30.9056C35.857 30.9056 36.3656 31.0092 36.8742 31.2111C37.3828 31.4129 37.793 31.6693 38.0938 31.9748C38.4492 32.2803 38.7555 32.684 39.0125 33.1423C39.2695 33.6005 39.4719 34.0588 39.625 34.5661C39.7781 35.0734 39.9312 35.5808 40.0297 36.1427C40.1336 36.6991 40.1828 37.261 40.232 37.7193C40.232 38.2266 40.2812 38.7339 40.2812 39.2413ZM25.3187 20.7042C25.3187 21.7188 24.9633 22.6353 24.2523 23.3445C23.5414 24.0537 22.6227 24.4083 21.6055 24.4083C20.5883 24.4083 19.6641 24.0592 18.9531 23.35C18.2422 22.6408 17.8867 21.7243 17.8867 20.7096C17.8867 19.6949 18.2422 18.7784 18.9531 18.0638C19.6641 17.3546 20.5828 17 21.6 17C22.6172 17 23.5359 17.3546 24.2469 18.0638C24.9578 18.7784 25.3187 19.6404 25.3187 20.7042ZM35.6 26.2904C35.6 27.8124 35.0422 29.1326 33.9703 30.2509C32.8984 31.3693 31.5258 31.8766 30 31.8766C28.4742 31.8766 27.1508 31.3202 26.0297 30.2509C24.9086 29.1872 24.4 27.8124 24.4 26.2904C24.4 24.7684 24.9578 23.4482 26.0297 22.3298C27.1016 21.2115 28.425 20.7042 30 20.7042C31.575 20.7042 32.8492 21.2606 33.9703 22.3298C35.0914 23.3991 35.6 24.7193 35.6 26.2904ZM44 29.5418C44 30.3055 43.743 30.8619 43.1852 31.2711C42.6273 31.6748 41.9656 31.8821 41.1508 31.8821H39.2148C38.1977 30.7146 36.9234 30.0546 35.3484 30.0055C36.1141 28.8871 36.5188 27.616 36.5188 26.2958C36.5188 25.9903 36.5187 25.6849 36.4695 25.3303C37.1312 25.5321 37.7438 25.6849 38.4055 25.6849C38.9633 25.6849 39.5758 25.5812 40.1391 25.3794C40.6969 25.1775 41.2055 24.9757 41.5664 24.7684C41.9219 24.5665 42.1242 24.4629 42.1789 24.4629C43.3875 24.4138 44 26.1431 44 29.5418ZM42.1187 20.7042C42.1187 21.7188 41.7633 22.6353 41.0523 23.3445C40.3414 24.0537 39.4227 24.4083 38.4055 24.4083C37.3883 24.4083 36.4695 24.0537 35.7586 23.3445C35.0477 22.6353 34.6922 21.7188 34.6922 20.7042C34.6922 19.6895 35.0477 18.773 35.7586 18.0638C36.4695 17.3546 37.3883 17 38.4055 17C39.4227 17 40.3414 17.3546 41.0523 18.0638C41.7578 18.7784 42.1187 19.6404 42.1187 20.7042Z" fill="#FAFAFF"/>
</svg>
