<svg width="60" height="60" viewBox="0 0 60 60" fill="none" xmlns="http://www.w3.org/2000/svg">
<circle cx="30" cy="30" r="30" fill="#03C12D"/>
<path d="M40.6938 31.7389V40.6794C40.6938 41.0075 40.5825 41.277 40.3657 41.4996C40.1489 41.7164 39.8736 41.8277 39.5455 41.8277H32.4095V34.7386H27.6697V41.8804H20.4751C20.147 41.8804 19.8775 41.7691 19.6549 41.5523C19.4381 41.3356 19.3268 41.0602 19.3268 40.7321V31.7389V31.6861V31.6334L30.0074 22.8569L40.6879 31.6861C40.6938 31.6861 40.6938 31.6861 40.6938 31.7389ZM44.8887 30.4851L43.7462 31.8502C43.6349 31.9615 43.5294 32.0142 43.3654 32.067H43.3127C43.1486 32.067 43.0373 32.0142 42.9319 31.9556L30.0132 21.1637L17.1473 31.9029C16.9833 32.0142 16.872 32.067 16.7138 32.0142C16.5497 32.0142 16.4384 31.9029 16.3329 31.7975L15.1319 30.4851C15.0206 30.3738 14.9678 30.2097 15.0206 30.0515C15.0206 29.8875 15.0733 29.7234 15.2373 29.6707L28.5954 18.4921C28.9762 18.164 29.4684 18 30.0132 18C30.5581 18 31.0502 18.164 31.431 18.4921L35.954 22.3062V18.6562C35.954 18.4921 36.0068 18.3281 36.1181 18.2226C36.2294 18.1113 36.3934 18.0586 36.5516 18.0586H40.0962C40.2602 18.0586 40.4243 18.1113 40.5297 18.2226C40.6411 18.334 40.6938 18.498 40.6938 18.6562V26.2316L44.7832 29.6121C44.8945 29.7234 45 29.8289 45 29.9929C45 30.157 44.9473 30.321 44.8887 30.4851Z" fill="white"/>
</svg>
