<svg width="24" height="25" viewBox="0 0 24 25" fill="none" xmlns="http://www.w3.org/2000/svg">
<path d="M22.8281 0.000732422H13.7051C13.0957 0.000732422 12.1816 0.348282 11.7481 0.83131L0.410156 12.1884C-0.0234373 12.6243 -0.0234373 13.3665 0.410156 13.8025L10.2305 23.6751C10.6641 24.1111 11.4024 24.1111 11.8359 23.6751L23.1738 12.2768C23.6074 11.8409 24 10.969 24 10.3094V1.13762C23.959 0.524999 23.4375 0.000732422 22.8281 0.000732422ZM17.0918 9.17243C15.832 9.17243 14.7891 8.1239 14.7891 6.85742C14.7891 5.59093 15.832 4.5424 17.0918 4.5424C18.3516 4.5424 19.3946 5.59093 19.3946 6.85742C19.3946 8.1239 18.3516 9.17243 17.0918 9.17243Z" fill="#03C12D"/>
</svg>
