<svg width="60" height="60" viewBox="0 0 60 60" fill="none" xmlns="http://www.w3.org/2000/svg">
<circle cx="30" cy="30" r="30" fill="#2C71FB"/>
<g clip-path="url(#clip0_1_4710)">
<path d="M43.8674 17.9622H35.0485C34.4594 17.9622 33.5758 18.2963 33.1567 18.7608L22.1967 29.6811C21.7775 30.1002 21.7775 30.8139 22.1967 31.2331L31.6897 40.726C32.1088 41.1452 32.8225 41.1452 33.2416 40.726L44.2016 29.7661C44.6207 29.3469 45.0002 28.5086 45.0002 27.8743V19.0553C44.9606 18.4663 44.4565 17.9622 43.8674 17.9622ZM38.3223 26.7811C37.1045 26.7811 36.0963 25.7729 36.0963 24.5551C36.0963 23.3373 37.1045 22.3292 38.3223 22.3292C39.5401 22.3292 40.5483 23.3373 40.5483 24.5551C40.5483 25.7729 39.5401 26.7811 38.3223 26.7811Z" fill="white"/>
<path d="M18.4583 30.4741L30.9759 17.9565H29.1294C28.5403 17.9565 27.6567 18.2907 27.2376 18.7552L16.3173 29.6812C15.8981 30.1003 15.8981 30.814 16.3173 31.2331L25.8103 40.7261C26.2294 41.1452 26.9431 41.1452 27.3622 40.7261L28.0362 40.052L18.4583 30.4741Z" fill="white"/>
</g>
<defs>
<clipPath id="clip0_1_4710">
<rect width="29" height="25" fill="white" transform="translate(16 17)"/>
</clipPath>
</defs>
</svg>
