<svg width="40" height="41" viewBox="0 0 40 41" fill="none" xmlns="http://www.w3.org/2000/svg">
<path fill-rule="evenodd" clip-rule="evenodd" d="M18.5134 0.71808C14.1419 1.13694 10.6516 2.5217 7.43271 5.11435C1.22396 10.1153 -1.39585 18.2772 0.725123 26.0119C1.33403 28.2326 2.37681 30.4174 3.73987 32.3284L4.27428 33.0777L4.079 33.4722C3.46946 34.7037 3.72807 36.2161 4.71722 37.205C6.52072 39.0082 9.56095 38.1639 10.194 35.6839C10.8303 33.1918 8.41397 30.975 5.96912 31.8077C5.34653 32.0198 5.47294 32.0894 4.84425 31.1884C3.24932 28.9025 2.19294 26.2098 1.73186 23.2552C1.5376 22.01 1.53963 19.2806 1.73585 18.0184C3.00151 9.87516 9.18509 3.70622 17.3799 2.41126C18.5722 2.2229 21.4237 2.22391 22.5785 2.41322C24.1573 2.672 24.0248 2.6756 24.335 2.36546C24.7321 1.96841 24.6773 1.41128 24.2179 1.17368C23.56 0.833601 20.1504 0.561291 18.5134 0.71808ZM26.8086 2.18288C26.3718 2.42486 26.2924 2.95674 26.6357 3.34082C26.8231 3.5506 26.9188 3.59437 27.1909 3.59437C27.4654 3.59437 27.5584 3.55091 27.7549 3.33097C27.959 3.10259 27.9845 3.02513 27.9471 2.74673C27.8712 2.18038 27.3124 1.90369 26.8086 2.18288ZM32.1178 3.2883C30.6092 3.71138 29.5947 5.13405 29.7116 6.66247C29.8779 8.83516 31.9832 10.2406 34.0284 9.544C34.6593 9.32913 34.5148 9.23456 35.2735 10.3587C36.8386 12.6777 37.8261 15.2323 38.2649 18.0966C38.4571 19.3518 38.4581 22.0164 38.2667 23.2552C37.3229 29.3649 33.653 34.4442 28.2088 37.1755C24.7183 38.9267 20.7581 39.5053 16.8213 38.8393C16.1709 38.7293 16.0847 38.7296 15.866 38.8426C15.5651 38.9982 15.4646 39.1825 15.4646 39.5785C15.4646 39.8263 15.5111 39.9284 15.6936 40.0819C15.8194 40.1879 16.0393 40.2962 16.1822 40.3228C18.6767 40.7864 21.2385 40.7892 23.7121 40.3312C28.3624 39.47 32.6513 36.8866 35.6461 33.1424C41.2182 26.1761 41.4656 16.3246 36.2518 9.01524L35.7117 8.25787L35.8651 7.99791C35.9495 7.85488 36.077 7.5098 36.1485 7.23108C36.5524 5.65569 35.6687 3.97525 34.1265 3.38608C33.5826 3.17833 32.6685 3.13377 32.1178 3.2883ZM33.484 4.81859C34.1033 4.99 34.6937 5.78598 34.6952 6.45128C34.6974 7.40499 33.81 8.23286 32.869 8.15486C31.9964 8.08248 31.3438 7.43 31.2714 6.55758C31.2433 6.21914 31.2758 6.06001 31.4427 5.71915C31.8264 4.93482 32.6273 4.58153 33.484 4.81859ZM17.1279 6.60494C16.8248 6.78971 16.7986 6.88694 16.7738 7.92069L16.7545 8.72629L16.0261 8.96811C15.6255 9.10106 14.9661 9.37275 14.5608 9.57174L13.8239 9.93355L13.2623 9.36829C12.647 8.74895 12.3748 8.5938 12.0459 8.67493C11.7438 8.74942 8.14614 12.3367 8.03458 12.6746C7.91458 13.0381 8.07742 13.348 8.71893 13.9771L9.26053 14.5081L8.8881 15.2667C8.6832 15.6839 8.40982 16.3419 8.28044 16.7288L8.04529 17.4322L7.10531 17.4713C5.70027 17.5297 5.81503 17.2628 5.78736 20.5372C5.77165 22.4059 5.79158 23.2728 5.85396 23.4233C6.0086 23.7966 6.2224 23.8731 7.17849 23.8973L8.05241 23.9195L8.30742 24.6713C8.44766 25.0847 8.72127 25.7408 8.91546 26.1292L9.26858 26.8354L8.6961 27.404C8.06968 28.026 7.91412 28.2976 7.9955 28.6272C8.07 28.9292 11.658 32.5262 11.996 32.6377C12.3605 32.758 12.6697 32.5947 13.3062 31.9459L13.8448 31.3969L14.4788 31.7175C14.8275 31.8937 15.4822 32.1682 15.9336 32.3274L16.7545 32.6169L16.7738 33.4268C16.7986 34.465 16.8246 34.5619 17.1279 34.7468C17.3652 34.8915 17.5329 34.9005 19.9988 34.9005C23.3762 34.9005 23.1864 34.9871 23.2237 33.4268L23.243 32.6169L24.0711 32.3257C24.5266 32.1656 25.1818 31.8916 25.5272 31.717L26.1552 31.3994L26.6926 31.9472C27.3279 32.5947 27.6372 32.7579 28.0015 32.6377C28.3395 32.5262 31.9275 28.9292 32.002 28.6272C32.0834 28.2976 31.9278 28.026 31.3014 27.404L30.7289 26.8354L31.082 26.1292C31.2762 25.7408 31.5498 25.0847 31.6901 24.6713L31.9451 23.9195L32.819 23.8973C33.7751 23.8731 33.9889 23.7966 34.1435 23.4233C34.2059 23.2728 34.2259 22.4059 34.2101 20.5372C34.1825 17.2628 34.2972 17.5297 32.8922 17.4713L31.9522 17.4322L31.7171 16.7288C31.5877 16.3419 31.3143 15.6839 31.1094 15.2667L30.737 14.5081L31.2786 13.9771C31.9201 13.348 32.0829 13.0381 31.9629 12.6746C31.8514 12.3367 28.2537 8.74942 27.9516 8.67493C27.6227 8.5938 27.3505 8.74895 26.7352 9.36829L26.1736 9.93355L25.4367 9.57174C25.0314 9.37275 24.372 9.10106 23.9714 8.96811L23.243 8.72629L23.2237 7.92069C23.1989 6.88694 23.1727 6.78971 22.8696 6.60494C22.6323 6.46027 22.4646 6.45128 19.9988 6.45128C17.5329 6.45128 17.3652 6.46027 17.1279 6.60494ZM21.6529 8.83305C21.6776 9.59175 21.6944 9.66694 21.8814 9.85375C22.0157 9.98795 22.2861 10.1073 22.6899 10.2107C23.6621 10.4597 25.069 11.0658 25.7446 11.5264C25.8803 11.6191 26.1061 11.6867 26.2807 11.6869C26.5483 11.6874 26.6454 11.6261 27.1465 11.1403C27.4569 10.8394 27.7438 10.5932 27.7841 10.5932C27.8244 10.5932 28.3646 11.1013 28.9845 11.7222L30.1116 12.851L29.5503 13.4419C28.8279 14.2022 28.8146 14.3518 29.3816 15.3403C29.8185 16.1022 30.1372 16.8799 30.4362 17.9142C30.7263 18.9173 30.8169 18.9887 31.8439 19.0221L32.6631 19.0487V20.683V22.3172H31.9166C30.7645 22.3172 30.7595 22.3218 30.3187 23.8023C30.082 24.5968 29.7522 25.3631 29.3361 26.0848C28.8308 26.9613 28.8482 27.1129 29.5361 27.8222C29.8371 28.1326 30.0834 28.4194 30.0834 28.4598C30.0834 28.5 29.5752 29.0401 28.9542 29.6599L27.8251 30.7867L27.2461 30.2369C26.561 29.5863 26.359 29.5188 25.8619 29.7746C25.6684 29.8742 25.1935 30.1199 24.8065 30.3206C24.4196 30.5213 23.7512 30.7931 23.3212 30.9244C21.9279 31.35 21.8696 31.3775 21.7497 31.6643C21.6835 31.8229 21.6404 32.204 21.6404 32.6319V33.3378H19.9988H18.3571V32.6319C18.3571 32.204 18.314 31.8229 18.2478 31.6643C18.1285 31.3789 18.1106 31.3704 16.6523 30.9127C16.2092 30.7736 15.5408 30.5014 15.167 30.3077C14.7932 30.1141 14.3291 29.8742 14.1356 29.7746C13.6385 29.5188 13.4365 29.5863 12.7514 30.2369L12.1724 30.7867L11.0433 29.6599C10.4223 29.0401 9.91415 28.5 9.91415 28.4598C9.91415 28.4194 10.1604 28.1326 10.4614 27.8222C11.1493 27.1129 11.1668 26.9613 10.6614 26.0848C10.2453 25.3631 9.91548 24.5968 9.67884 23.8023C9.23801 22.3218 9.23301 22.3172 8.08094 22.3172H7.33437V20.683V19.0487L8.15364 19.0221C9.18055 18.9887 9.27124 18.9173 9.56127 17.9142C9.86029 16.8799 10.179 16.1022 10.6159 15.3403C11.1792 14.3582 11.1668 14.2174 10.4484 13.4484L9.88827 12.8487L11.0142 11.7209C11.6335 11.1007 12.1731 10.5932 12.2134 10.5932C12.2537 10.5932 12.5406 10.8394 12.851 11.1403C13.3521 11.6261 13.4492 11.6874 13.7168 11.6869C13.8914 11.6867 14.1171 11.6191 14.2529 11.5264C14.9268 11.0666 16.5171 10.4061 17.6195 10.128C17.7943 10.0839 18.023 9.95676 18.1276 9.84546C18.2996 9.66257 18.3206 9.56463 18.3446 8.82852L18.3713 8.01393H19.9988H21.6262L21.6529 8.83305ZM19.1477 14.2689C17.7477 14.4621 16.4957 15.0952 15.4577 16.1346C14.6824 16.9109 14.212 17.6536 13.8915 18.6072C12.3886 23.0789 16.042 27.6127 20.7216 27.0829C24.2366 26.6849 26.8062 23.4767 26.4101 19.9807C26.1077 17.3116 24.1782 15.0834 21.5968 14.4222C20.9124 14.2468 19.8078 14.1776 19.1477 14.2689ZM21.1714 15.9217C21.8966 16.0891 22.8206 16.6159 23.4066 17.196C24.3989 18.1785 24.8637 19.2884 24.8637 20.6759C24.8637 22.0403 24.4002 23.1656 23.4446 24.121C22.4889 25.0764 21.3635 25.5399 19.9988 25.5399C18.611 25.5399 17.5009 25.0752 16.5182 24.083C15.9171 23.4761 15.4092 22.5691 15.2228 21.7701C15.0941 21.2185 15.0941 20.1332 15.2228 19.5816C15.4092 18.7827 15.9171 17.8756 16.5182 17.2687C17.7646 16.0103 19.4464 15.5234 21.1714 15.9217ZM7.93069 33.4608C8.40662 33.7549 8.74152 34.3498 8.74152 34.901C8.74152 36.006 7.63652 36.8342 6.55191 36.5422C6.07575 36.414 5.50843 35.8467 5.38014 35.3707C5.07401 34.2338 5.96403 33.1183 7.11337 33.1987C7.43021 33.2208 7.66356 33.2957 7.93069 33.4608ZM12.5106 37.8326C12.2148 37.9611 11.9949 38.389 12.0704 38.6895C12.2173 39.2749 12.9342 39.4751 13.3599 39.0495C13.7704 38.6391 13.622 37.9989 13.0677 37.7882C12.8269 37.6966 12.8226 37.697 12.5106 37.8326Z" fill="white"/>
</svg>
