<svg width="30" height="30" viewBox="0 0 30 30" fill="none" xmlns="http://www.w3.org/2000/svg">
<path fill-rule="evenodd" clip-rule="evenodd" d="M5.44593 0.0439114C4.50718 0.168222 4.16864 0.328712 4.00148 0.728853C3.89213 0.990668 3.9011 1.18265 4.03473 1.43948C4.09699 1.5591 4.69257 2.19795 5.35833 2.85909C6.61288 4.10495 6.84523 4.37826 6.9666 4.75072C7.0858 5.11638 7.05414 5.63743 6.89126 5.99336C6.49978 6.84847 5.5449 7.23178 4.64197 6.89626C4.33691 6.78291 4.16331 6.63245 2.92477 5.40846C2.16696 4.65948 1.48929 4.01694 1.41888 3.98064C1.24292 3.88987 0.899106 3.89773 0.708495 3.99694C0.312907 4.20276 0.156595 4.58712 0.0495338 5.61703C-0.132752 7.37075 0.526913 9.18581 1.81452 10.4735C2.36314 11.0222 2.82263 11.3481 3.51437 11.6792C4.43758 12.121 4.88612 12.2127 6.09088 12.206C6.90187 12.2015 7.23367 12.1745 7.67393 12.0772L8.23093 11.9539L13.1441 16.8646L18.0573 21.7752L17.9278 22.3295C17.8202 22.7906 17.7981 23.0611 17.7968 23.9392C17.7949 25.1686 17.8758 25.5658 18.3125 26.4735C18.6667 27.2094 18.9612 27.6269 19.5223 28.188C20.4145 29.0804 21.4375 29.629 22.7129 29.8992C23.5153 30.0691 25.2276 29.9399 25.6749 29.6756C26.0065 29.4798 26.1648 28.998 26.0221 28.6193C25.9878 28.5285 25.3579 27.8473 24.6222 27.1056C23.7738 26.2501 23.2356 25.6604 23.1507 25.4931C23.0629 25.32 23.008 25.0879 22.991 24.8187C22.9097 23.5259 24.1291 22.6411 25.3638 23.097C25.67 23.21 25.8377 23.3557 27.081 24.5886C27.8388 25.3401 28.5331 25.983 28.6239 26.0172C28.8761 26.1123 29.1241 26.092 29.3649 25.9566C29.6429 25.8004 29.7559 25.6063 29.8614 25.1038C30.452 22.2899 29.0303 19.4755 26.4067 18.2651C25.5441 17.8671 25.1402 17.7894 23.9442 17.7911C23.0749 17.7922 22.7908 17.815 22.3324 17.9198L21.776 18.0471L16.8646 13.1357C13.4657 9.73694 11.9638 8.1973 11.9878 8.13644C12.1517 7.71976 12.2656 6.92276 12.2684 6.17209C12.2726 5.07358 12.1186 4.38043 11.6621 3.44247C11.091 2.26925 10.0687 1.22305 8.92384 0.640135C7.91872 0.128349 6.56327 -0.103972 5.44593 0.0439114ZM27.2696 0.0709431C26.9667 0.207509 22.5529 2.86172 22.3996 2.99946C22.0494 3.31393 21.9927 3.81253 22.2646 4.18429C22.3566 4.31006 22.4899 4.4644 22.5606 4.5272L22.6893 4.64148L19.7404 7.59105L16.7916 10.5406L18.0372 11.7864L19.2829 13.0322L22.2309 10.0844L25.1789 7.13661L25.3824 7.35064C25.7658 7.75389 26.0173 7.90189 26.3189 7.90189C26.8224 7.90189 26.8634 7.85105 28.3553 5.37961C30.036 2.59533 30.0384 2.59076 29.9853 2.23671C29.9479 1.98721 29.8828 1.90213 29.1725 1.17444C28.7477 0.739408 28.3039 0.307017 28.1861 0.213608C27.9235 0.00532808 27.5455 -0.0535437 27.2696 0.0709431ZM4.99804 20.0541C0.761146 24.2991 0.585544 24.4836 0.380627 24.9067C-0.304836 26.3216 -0.0529542 27.8617 1.04322 28.958C1.98643 29.9013 3.30623 30.2306 4.56646 29.837C5.36449 29.5879 5.40026 29.5557 10.0101 24.9451L14.3581 20.5964L11.8802 18.1189L9.40239 15.6414L4.99804 20.0541ZM10.1802 19.485C10.4765 19.6088 10.5855 19.7194 10.696 20.0089C10.7745 20.2146 10.7791 20.3007 10.7224 20.5148C10.6613 20.746 10.3673 21.0604 7.89099 23.5426C6.37125 25.0661 5.04366 26.3524 4.94088 26.4012C4.19145 26.7569 3.41974 25.9861 3.77516 25.237C3.90363 24.9662 9.29738 19.5964 9.55015 19.4877C9.81276 19.3747 9.91519 19.3743 10.1802 19.485Z" fill="#FF9900"/>
</svg>
