<svg width="60" height="60" viewBox="0 0 60 60" fill="none" xmlns="http://www.w3.org/2000/svg">
<g filter="url(#filter0_d_1_4735)">
<circle cx="30" cy="30" r="30" fill="#4B4AEF"/>
</g>
<path d="M68.4375 60.3896C69.4863 60.3896 70.3125 61.2136 70.3125 62.2597C70.3125 63.3058 69.4863 64.1299 68.4375 64.1299C67.3887 64.1299 66.5625 63.3058 66.5625 62.2597C66.5625 61.2136 67.3887 60.3896 68.4375 60.3896ZM53.4375 60.3896C54.4863 60.3896 55.3125 61.2136 55.3125 62.2597C55.3125 63.3058 54.4863 64.1299 53.4375 64.1299C52.3887 64.1299 51.5625 63.3058 51.5625 62.2597C51.5625 61.2136 52.3887 60.3896 53.4375 60.3896ZM46.875 52.9091V54.7792H52.5V52.9091H46.875ZM64.6875 51.039H71.5137L73.125 55.8312V61.3247H72.041C71.625 59.7175 70.1719 58.5195 68.4375 58.5195C66.7031 58.5195 65.25 59.7175 64.834 61.3247H64.6875V51.039ZM45.9375 49.1688V51.039H54.375V49.1688H45.9375ZM45 45.4286V47.2987H62.8125V61.3247H57.041C56.625 59.7175 55.1719 58.5195 53.4375 58.5195C51.7031 58.5195 50.25 59.7175 49.834 61.3247H48.75V56.6494H46.875V63.1948H49.834C50.25 64.8019 51.7031 66 53.4375 66C55.1719 66 56.625 64.8019 57.041 63.1948H64.834C65.25 64.8019 66.7031 66 68.4375 66C70.1719 66 71.625 64.8019 72.041 63.1948H75V55.5682L74.9414 55.4221L73.0664 49.8117L72.8613 49.1688H64.6875V45.4286H45Z" fill="white"/>
<defs>
<filter id="filter0_d_1_4735" x="0" y="0" width="60" height="60" filterUnits="userSpaceOnUse" color-interpolation-filters="sRGB">
<feFlood flood-opacity="0" result="BackgroundImageFix"/>
<feColorMatrix in="SourceAlpha" type="matrix" values="0 0 0 0 0 0 0 0 0 0 0 0 0 0 0 0 0 0 127 0" result="hardAlpha"/>
<feOffset dy="5"/>
<feGaussianBlur stdDeviation="15"/>
<feComposite in2="hardAlpha" operator="out"/>
<feColorMatrix type="matrix" values="0 0 0 0 0.294118 0 0 0 0 0.290196 0 0 0 0 0.937255 0 0 0 0.6 0"/>
<feBlend mode="normal" in2="BackgroundImageFix" result="effect1_dropShadow_1_4735"/>
<feBlend mode="normal" in="SourceGraphic" in2="effect1_dropShadow_1_4735" result="shape"/>
</filter>
</defs>
</svg>
