<svg width="41" height="28" viewBox="0 0 41 28" fill="none" xmlns="http://www.w3.org/2000/svg">
<path d="M31.4128 20.4805C32.8185 20.4805 33.9258 21.5849 33.9258 22.987C33.9258 24.3891 32.8185 25.4935 31.4128 25.4935C30.007 25.4935 28.8997 24.3891 28.8997 22.987C28.8997 21.5849 30.007 20.4805 31.4128 20.4805ZM11.3086 20.4805C12.7143 20.4805 13.8216 21.5849 13.8216 22.987C13.8216 24.3891 12.7143 25.4935 11.3086 25.4935C9.90287 25.4935 8.79557 24.3891 8.79557 22.987C8.79557 21.5849 9.90287 20.4805 11.3086 20.4805ZM2.51302 10.4546V12.961H10.0521V10.4546H2.51302ZM26.3867 7.94806H35.5357L37.6953 14.371V21.7338H36.2425C35.6849 19.5798 33.7373 17.974 31.4128 17.974C29.0882 17.974 27.1406 19.5798 26.583 21.7338H26.3867V7.94806ZM1.25651 5.44157V7.94806H12.5651V5.44157H1.25651ZM0 0.428589V2.93508H23.8737V21.7338H16.1383C15.5807 19.5798 13.6331 17.974 11.3086 17.974C8.98405 17.974 7.03646 19.5798 6.47888 21.7338H5.02604V15.4675H2.51302V24.2403H6.47888C7.03646 26.3943 8.98405 28 11.3086 28C13.6331 28 15.5807 26.3943 16.1383 24.2403H26.583C27.1406 26.3943 29.0882 28 31.4128 28C33.7373 28 35.6849 26.3943 36.2425 24.2403H40.2083V14.0185L40.1298 13.8227L37.6168 6.30318L37.3419 5.44157H26.3867V0.428589H0Z" fill="#4B4AEF"/>
</svg>
