<svg width="60" height="60" viewBox="0 0 60 60" fill="none" xmlns="http://www.w3.org/2000/svg">
<circle cx="30" cy="30" r="30" fill="#2C71FB"/>
<path d="M32.4071 36.8922L38.2752 41.3055L47 29.8758L45.1249 28.4703L37.8229 38.0406L33.8245 35.0328L32.4071 36.8922ZM37.3431 31.9539C36.8964 30.5813 36.1408 29.3617 35.1536 28.3773C33.4605 26.6766 31.0725 25.6703 28.4087 25.6703C25.7614 25.6703 23.3845 26.6656 21.6914 28.3445C19.9982 30.018 18.9945 32.375 19 35V42H31.9438V39.6648H21.3549V35C21.3549 32.9602 22.116 31.232 23.3624 29.9906C24.6143 28.7547 26.3571 28 28.4142 28C30.4878 28 32.2362 28.7656 33.4881 30.0125C34.216 30.7398 34.7731 31.6422 35.1095 32.6703L37.3431 31.9539ZM28.4087 26.8352V28C32.3078 28 35.4679 24.8664 35.4679 21C35.4679 17.1336 32.3078 14 28.4087 14C24.5095 14 21.3494 17.1336 21.3494 21C21.3494 24.8664 24.5095 28 28.4087 28V26.8352V25.6703C27.1072 25.6703 25.9379 25.1508 25.0831 24.3031C24.2283 23.4555 23.7043 22.2961 23.7043 21.0055C23.7043 19.7148 24.2283 18.5555 25.0831 17.7078C25.9379 16.8602 27.1072 16.3406 28.4087 16.3406C29.7102 16.3406 30.8795 16.8602 31.7343 17.7078C32.5891 18.5555 33.113 19.7148 33.113 21.0055C33.113 22.2961 32.5891 23.4555 31.7343 24.3031C30.8795 25.1508 29.7102 25.6703 28.4087 25.6703V26.8352Z" fill="white"/>
</svg>
